<?xml version="1.0" standalone="no"?>
<!DOCTYPE svg PUBLIC "-//W3C//DTD SVG 20010904//EN"
 "http://www.w3.org/TR/2001/REC-SVG-20010904/DTD/svg10.dtd">
<svg version="1.0" xmlns="http://www.w3.org/2000/svg"
 width="500.000000pt" height="275.000000pt" viewBox="0 0 500.000000 275.000000"
 preserveAspectRatio="xMidYMid meet">

<g transform="translate(0.000000,275.000000) scale(0.100000,-0.100000)"
fill="#000000" stroke="none">
<path d="M1307 1754 c-4 -4 -7 -65 -7 -136 l0 -128 -32 20 c-72 43 -177 14
-222 -62 l-26 -43 0 58 0 57 -60 0 c-45 0 -60 -4 -60 -14 0 -11 -8 -10 -37 6
-53 27 -129 21 -177 -16 -50 -38 -69 -80 -70 -153 -1 -53 3 -67 29 -104 54
-76 141 -100 218 -59 31 17 37 17 37 5 0 -12 13 -15 60 -15 l60 0 0 58 0 57
23 -40 c44 -77 142 -106 222 -65 47 24 45 24 45 5 0 -12 13 -15 60 -15 l60 0
-2 293 -3 292 -55 3 c-31 2 -59 0 -63 -4z m-424 -355 c24 -30 22 -91 -3 -114
-32 -29 -88 -25 -116 9 -33 37 -30 71 6 108 26 25 36 29 63 24 18 -3 40 -16
50 -27z m402 1 c50 -50 0 -149 -68 -136 -59 12 -89 64 -65 114 26 53 90 63
133 22z"/>
<path d="M4239 1588 c0 -102 -4 -165 -9 -153 -13 32 -62 71 -104 85 -82 26
-191 -10 -226 -75 l-13 -24 -16 32 c-34 67 -143 97 -208 57 -27 -16 -33 -17
-33 -5 0 12 -14 15 -60 15 l-60 0 0 -175 0 -175 60 0 60 0 0 113 c0 96 3 116
18 129 31 28 57 30 85 7 26 -20 27 -23 27 -135 l0 -114 60 0 60 0 0 47 0 47
34 -37 c19 -20 50 -44 70 -52 73 -31 171 -13 229 42 l27 27 0 -37 0 -37 60 0
60 0 0 295 0 295 -60 0 -60 0 -1 -172z m-121 -165 l14 -23 -66 0 c-36 0 -66 3
-66 7 0 3 8 15 17 25 23 26 81 21 101 -9z m122 -129 c0 -32 -2 -35 -22 -29
-13 4 -27 11 -32 16 -15 14 -42 11 -56 -6 -17 -20 -88 -19 -112 2 -10 9 -18
24 -18 35 0 16 10 18 120 18 l120 0 0 -36z"/>
<path d="M2080 1727 c-56 -28 -48 -110 14 -130 68 -22 117 77 60 122 -31 24
-40 25 -74 8z"/>
<path d="M1602 1510 c-39 -24 -42 -24 -42 -5 0 12 -13 15 -60 15 l-60 0 0
-175 0 -175 60 0 60 0 0 108 c0 123 11 152 60 152 52 0 60 -19 60 -146 l0
-114 60 0 60 0 0 108 c0 122 12 152 59 152 51 0 61 -24 61 -148 l0 -112 60 0
60 0 0 133 c0 147 -7 169 -60 205 -48 32 -118 27 -160 -13 l-28 -27 -21 21
c-45 45 -115 53 -169 21z"/>
<path d="M2352 1510 c-39 -24 -42 -24 -42 -5 0 12 -13 15 -60 15 l-60 0 0
-175 0 -175 59 0 59 0 4 110 c3 94 6 112 23 129 35 33 62 35 90 7 24 -24 25
-31 25 -136 l0 -110 60 0 60 0 0 130 c0 154 -9 182 -73 211 -54 24 -104 24
-145 -1z"/>
<path d="M2856 1505 c-34 -23 -36 -23 -36 -5 0 18 -7 20 -60 20 l-60 0 0 -265
0 -265 60 0 60 0 0 104 0 104 37 -19 c72 -37 159 -18 208 44 l28 34 31 -35
c58 -66 145 -81 210 -37 34 23 36 23 36 5 0 -18 7 -20 60 -20 l60 0 0 175 0
175 -60 0 c-47 0 -60 -3 -60 -15 0 -12 -6 -12 -37 5 -71 38 -154 21 -209 -42
l-31 -35 -28 34 c-52 66 -144 82 -209 38z m107 -106 c33 -40 21 -101 -25 -125
-97 -50 -168 91 -73 145 27 15 76 5 98 -20z m385 -5 c52 -59 -4 -148 -82 -128
-33 8 -56 40 -56 77 0 82 83 112 138 51z"/>
<path d="M2050 1345 l0 -175 60 0 60 0 0 175 0 175 -60 0 -60 0 0 -175z"/>
</g>
</svg>
