<?xml version="1.0" standalone="no"?>
<!DOCTYPE svg PUBLIC "-//W3C//DTD SVG 20010904//EN"
 "http://www.w3.org/TR/2001/REC-SVG-20010904/DTD/svg10.dtd">
<svg version="1.0" xmlns="http://www.w3.org/2000/svg"
 width="217.000000pt" height="250.000000pt" viewBox="0 0 217.000000 250.000000"
 preserveAspectRatio="xMidYMid meet">

<g transform="translate(0.000000,250.000000) scale(0.100000,-0.100000)"
fill="#000000" stroke="none">
<path d="M737 1489 c-72 -38 -110 -132 -88 -216 30 -111 145 -164 244 -114 29
15 37 16 37 5 0 -10 15 -14 60 -14 l60 0 0 175 0 175 -60 0 c-45 0 -60 -4 -60
-14 0 -11 -8 -10 -37 5 -47 24 -108 24 -156 -2z m176 -111 c9 -11 17 -37 17
-58 0 -58 -55 -93 -109 -70 -47 19 -64 77 -35 118 32 46 93 50 127 10z"/>
<path d="M1235 1490 c-47 -24 -45 -24 -45 -5 0 12 -13 15 -60 15 l-60 0 0
-265 0 -265 60 0 60 0 0 100 c0 55 2 100 4 100 2 0 20 -7 39 -15 156 -65 300
94 228 250 -44 95 -137 130 -226 85z m74 -95 c31 -16 41 -33 41 -74 0 -61 -62
-96 -118 -67 -62 32 -57 119 9 145 33 13 36 13 68 -4z"/>
</g>
</svg>
